<svg xmlns="http://www.w3.org/2000/svg" viewBox="0 0 500 500"><defs><style>.cls-1{fill:#787558;}.cls-2{font-size:36.52px;font-family:AtramentSemiBold-Regular, Atrament;}.cls-3{letter-spacing:-0.05em;}.cls-4{font-size:20.77px;font-family:MrsEavesOT-Roman, Mrs Eaves OT;}.cls-5{letter-spacing:-0.07em;}.cls-6{letter-spacing:-0.02em;}</style></defs><g id="Layer_9" data-name="Layer 9"><rect class="cls-1" width="500" height="500"/><path d="M460.57,247.76c0,102.15-70.48,188.06-168.39,207.72-113,22.7-223.13-50.2-246.47-163.2a207.52,207.52,0,0,1-4-53.68,5.3,5.3,0,0,1,.17-1.66c.6-1.47.06-2.44-.87-3.63a8.66,8.66,0,0,1-1.42-3.95A10.38,10.38,0,0,1,45.21,218a2.23,2.23,0,0,0,1.37-2,47.28,47.28,0,0,1,.91-5.92,9.46,9.46,0,0,0-1.15-7.11c-3.16-5.59-3.28-11.31.08-16.86a10.89,10.89,0,0,1,18.59,0,8.66,8.66,0,0,1,1.14,3.35,2.85,2.85,0,0,1-2.58,3.42,2.66,2.66,0,0,0-2.24,1.81c-1.06,2.07-2.15,4.11-3.2,6.18-.21.41-.56,1.06-.4,1.29,1.22,1.73.17,3.41,0,5.09-.38,3.9-.84,7.79-1.13,11.69a4.41,4.41,0,0,0,.76,2.38,11.27,11.27,0,0,1-3.29,15.24,2.56,2.56,0,0,0-1.3,2.29A198.47,198.47,0,0,0,391.25,390.38q44.37-44.64,55.3-106.67c18.19-103.42-48.89-204-151.37-227.16-33.53-7.56-66.86-6.73-99.82,3.06a78.53,78.53,0,0,0-19.24,9c-16.71,10.5-29.53,24.75-40.48,41-7.14,10.6-14.82,20.85-22.52,31.06a94.32,94.32,0,0,1-17.61,17.93c-5,3.85-10.39,6.89-16.66,8.12a27.87,27.87,0,0,1-10.73.08c-9.09-1.76-15-8-16.79-17.77-1.24-6.78-.33-13.39,1.69-19.88,2.89-9.27,8.06-17.2,14.55-24.3A127,127,0,0,1,94.42,82.56a159.91,159.91,0,0,1,48.5-20.17c8.48-2,16.82-4.63,25.37-6.26,9.48-1.8,18.2-5.81,27.44-8.33C311,16.4,429.44,87.67,455.48,204.23A210.62,210.62,0,0,1,460.57,247.76ZM153.66,71.46c-.28-.13-.36-.21-.42-.19-3,.73-5.88,1.51-8.84,2.2A142.82,142.82,0,0,0,94.61,95.79c-9.27,6.49-17.66,14-24.25,23.33a45.53,45.53,0,0,0-7.74,17.14c-.93,4.52-1.22,9,.37,13.49A9,9,0,0,0,70.74,156a17,17,0,0,0,10.93-1.83,71.85,71.85,0,0,0,9.88-6.71,84.69,84.69,0,0,0,14.18-15.24c7-9.36,13.75-18.85,20.5-28.36,8.06-11.35,16-22.79,26.89-31.73A5.43,5.43,0,0,0,153.66,71.46Zm-99.44,130c1.74-3.32,3.53-6.61,5.17-10a2.62,2.62,0,0,0-.16-2.15c-2-3.26-5.11-3.25-7.2,0-2,3.05-1.92,6.36-.92,9.68A3.36,3.36,0,0,0,54.22,201.43Zm-9.47,23c3.17.32,6.2,1,9.53.66-1.43-2.56-3.22-4.1-5.86-3.9A3.8,3.8,0,0,0,44.75,224.43Z"/><path d="M276.06,129.25c4.13.39,7.62-1.45,11-3.66,1.33-.86,2.36-.3,2.76,1.36.2.85.28,1.73.42,2.66.88.24,1.56.44,2.25.61a22,22,0,0,1,12.55,8.15,16.89,16.89,0,0,0,9.84,6.32c1.06.26,2.1.59,3.13.95,2.32.81,3.18,2.21,2.53,4.63a22.17,22.17,0,0,1-2,5c-2.14,3.79-5.15,6.51-9.7,7.14-3.24.44-6.49.86-9.67,1.58a49.78,49.78,0,0,0-6.66,2.27,3.32,3.32,0,0,0-2.17,3.45c0,2,.07,4,.26,6a151.45,151.45,0,0,1-.41,31.5,22.74,22.74,0,0,1-2.93,9.28,38.33,38.33,0,0,0-5.06,15.39c-.55,4.5-1.12,9-1.55,13.51a16.49,16.49,0,0,0,2.52,10.38,72.51,72.51,0,0,1,3.72,7.23,1.71,1.71,0,0,1-1.48,2.36c-1.79.16-3.58.25-5.19.35-1,1.06-.2,1.86-.08,2.68.32,2.06-.39,3.13-2.45,3.39s-4.34.33-6.51.53a6.42,6.42,0,0,1-6.38-3.34,11.29,11.29,0,0,1-1.8-4.48c-.61-5.22-1.34-10.44-.86-15.73.31-3.48,1-6.82,3.49-9.51a12.45,12.45,0,0,0,1.49-2.26,8,8,0,0,0,.84-7.31c-1.27-3.16-1-6.43-1-9.68.06-2.38.68-3,3.18-3.71,1-.3,2.13-.47,3.14-.86,3.33-1.29,3.88-4.33,1.26-6.75-.13-.12-.32-.18-.45-.31-.4-.36-1.05-.69-1.13-1.12-.61-3.43-3.95-5.19-5-8.26-.43-1.25-.07-2.76-.07-4.45l-3.42,1.74-2-1.57a3.51,3.51,0,0,0-.9.4c-1.92,1.67-3.68,3.54-5.73,5a18.43,18.43,0,0,0-7.62,12.16c-.67,4.11-3,6.44-6.42,8.14a62.08,62.08,0,0,1-6,2.6c-14.22,5.39-22.64,15.84-26.49,30.26-.88,3.33-1.52,6.72-2.27,10.08-.41,1.84-1.12,3.39-3.07,4.18a6.17,6.17,0,0,0-2.61,1.85c-1.56,2.18-3.69,2.6-6.15,2.81-12.56,1.08-25-.17-37.47-1.54a41.06,41.06,0,0,1-9.9-2.83,18.2,18.2,0,0,1-9.52-8.57,10.5,10.5,0,0,1,.6-11.81c2.13-3,5.09-4.6,8.93-3.94a3.39,3.39,0,0,1,1,.46,4.27,4.27,0,0,1,.55.49c-.17.61-.39,1.28-.55,2a18.53,18.53,0,0,0-.66,3.18c-.36,6.17,2.88,9.63,9.09,9.54A74.19,74.19,0,0,0,175,256.3c3.92-1,6.49-3.92,8.12-7.53a13.69,13.69,0,0,0,1.27-4.71c.43-7.9,4.46-14.08,9.41-19.77a229.47,229.47,0,0,1,22-21.92A227,227,0,0,0,238,180.76c2.5-2.88,5.09-5.67,7.72-8.44a75,75,0,0,0,12.83-18.16,87,87,0,0,1,9.87-16.26c1.25-1.54,2.59-3,3.9-4.51C273.42,132.18,274.51,131,276.06,129.25Zm8.41,133.41a9.05,9.05,0,0,0-2.33-5.32c-3.52-4.49-4-9.61-3.51-15,.22-2.52.5-5.05.75-7.57.67-6.73,1.84-13.3,5.58-19.15a20.1,20.1,0,0,0,3-9.26c.86-10.3,1.72-20.62.33-31a39.47,39.47,0,0,1-.07-7.61,5.16,5.16,0,0,1,3.36-4.55,28.8,28.8,0,0,1,9.34-2.78,66.15,66.15,0,0,0,7.55-1,12.07,12.07,0,0,0,9-9.77,1.65,1.65,0,0,0-1-1.76,6.45,6.45,0,0,0-1.55-.53,24,24,0,0,1-13.48-8.67c-.34-.42-.76-.77-1.12-1.18-2.39-2.7-5.54-4.05-8.92-4.93-1.05-.27-2.29-.16-3.15-.7a9.55,9.55,0,0,1-2.05-2.34c-2.82.74-5.27,1.33-7.69,2a5.58,5.58,0,0,0-2.31,1.21,61.52,61.52,0,0,0-13.53,18.91,50.41,50.41,0,0,1-3.33,6.24,126.27,126.27,0,0,1-15.3,19.79c-2.13,2.23-4.15,4.57-6.26,6.82-2.72,2.92-5.35,5.94-8.25,8.68-4.88,4.62-10,9-14.92,13.56a266.11,266.11,0,0,0-21,21.4,25,25,0,0,0-6.1,12.55c-.33,2-.68,3.94-1.2,5.87-1.75,6.41-5.38,11.13-12.22,12.52-5.14,1-10.35,1.83-15.55,2.62a12.92,12.92,0,0,1-6.38-1.11,8.72,8.72,0,0,1-5.95-7.17,40.68,40.68,0,0,1-.19-5.42c0-.86,0-1.72,0-2.8a7.4,7.4,0,0,0-6.11,5.11,8.75,8.75,0,0,0,.82,7.86,18.29,18.29,0,0,0,10.73,7.9,52.06,52.06,0,0,0,11.2,2.11c10.16.46,20.27,1.67,30.46,1.55,3.06,0,5.79-.11,7.56-3,3.4-1.29,4.13-4.18,4.54-7.35a54,54,0,0,1,1.06-5.33,40,40,0,0,1,2.93-9.32c5.44-10.73,13.23-19,24.51-23.68,2-.84,4-1.66,6-2.54a11,11,0,0,0,6.57-7.51c.14-.53.21-1.08.37-1.59a20.14,20.14,0,0,1,6.41-9.92,54.07,54.07,0,0,0,8.16-8,8.74,8.74,0,0,1,2.52-2,1.53,1.53,0,0,1,1.38.46,11.8,11.8,0,0,1,1.08,2.31l1.55-1c.73-.46,1.48-1.36,2.33-.57a2.82,2.82,0,0,1,.5,2,26.85,26.85,0,0,1-.5,3.77,3.33,3.33,0,0,0,.85,3c1.74,1.85,3.65,3.53,4.21,6.21.13.58,1,1,1.49,1.52,2.95,3.18,2.31,7.49-1.46,9.58a10.64,10.64,0,0,1-3,1.26c-3.93.73-3.69,2.75-3.44,5.59A16.72,16.72,0,0,0,270,227.9c1.5,4,1.37,8.06-1.38,11.36-3.43,4.13-3.87,8.86-3.8,13.8,0,2.72.28,5.44.53,8.15a10.82,10.82,0,0,0,3.43,6.64,3.62,3.62,0,0,0,1.88,1,10.36,10.36,0,0,0,6.55-.7c-.27-1.42-.53-2.79-.79-4.1C278.85,261.91,281.85,264,284.47,262.66Z"/><path d="M322.41,138.43c2.63-5.14,7-5.91,11.82-4.88A80.14,80.14,0,0,1,339.5,127c1.76-1.8,3.95-3.17,5.89-4.81,1.66-1.4,3.2-2.94,4.86-4.34a2,2,0,0,1,1.5-.14c.22,0,.47.58.49.9a50.73,50.73,0,0,1-2.11,15.83,16.27,16.27,0,0,0,9.35,3.18c.89.06,1.79-.11,2.69-.1.61,0,1.2,1.19.86,1.7a8.81,8.81,0,0,1-1.28,1.73c-2.93,2.67-5.91,5.3-9,8.1-.34,1,.63,1.77,1.12,2.68s1.21,1.8,1.7,2.76a2,2,0,0,1-1.43,2.93c-6.67,1-13.06.47-18.57-3.95a16,16,0,0,1-3-3.08c-1.59-2.2-2.8-4.69-4.53-6.76A56.34,56.34,0,0,0,322.41,138.43ZM353,155c-1.18-1.92-2.28-3.57-3.23-5.31s-.8-2.34,1-3.48a32,32,0,0,0,2.72-1.8c1.8-1.43,3.74-2.74,4.82-4.85-3.3-1.05-6.45-1.91-9.48-3.07a11.57,11.57,0,0,0-9.5.21c-.8.38-1.61.72-2.27,1-6.27-3.68-8.58-3.55-11.34.62a22.15,22.15,0,0,1,6.34,8,15.91,15.91,0,0,0,10.25,8.36A18.1,18.1,0,0,0,353,155Zm-4.07-32.37a51.72,51.72,0,0,0-8.32,6.56,23.22,23.22,0,0,0-2.81,3.91c-.36.57-.71,1.32.18,2,2.62-.89,5.31-1.87,8.26-1.65a2.29,2.29,0,0,0,1.64-1.14C349.39,129.4,349.54,126.28,348.88,122.65Z"/><text class="cls-2" transform="translate(126.57 337.78) scale(1.09 1)">FE<tspan class="cls-3" x="26.33" y="0">A</tspan><tspan x="39.88" y="0">THERS AND FUR</tspan></text><text class="cls-4" transform="translate(126.57 366.78) scale(0.87 1)">DOG <tspan class="cls-5" x="51" y="0">W</tspan><tspan x="65.91" y="0">ALKI</tspan><tspan class="cls-6" x="113.01" y="0">N</tspan><tspan x="127.65" y="0">G</tspan></text><text class="cls-4" transform="translate(266.62 366.78) scale(0.87 1)">PET SITTI<tspan class="cls-6" x="93.45" y="0">N</tspan><tspan x="108.09" y="0">G</tspan></text><circle cx="258.47" cy="361.28" r="1.99"/></g></svg>